<svg width="220" height="220" viewBox="0 0 220 220" fill="none" xmlns="http://www.w3.org/2000/svg">
  <defs>
    <linearGradient id="bg" x1="40" y1="30" x2="180" y2="190" gradientUnits="userSpaceOnUse">
      <stop stop-color="#22C55E"/>
      <stop offset="0.5" stop-color="#06B6D4"/>
      <stop offset="1" stop-color="#3B82F6"/>
    </linearGradient>
    <linearGradient id="flow" x1="55" y1="150" x2="180" y2="65" gradientUnits="userSpaceOnUse">
      <stop stop-color="#8B5CF6"/>
      <stop offset="1" stop-color="#06B6D4"/>
    </linearGradient>
    <filter id="shadow" x="0" y="0" width="220" height="220" filterUnits="userSpaceOnUse">
      <feDropShadow dx="0" dy="10" stdDeviation="10" flood-opacity="0.12"/>
    </filter>
  </defs>

  <g filter="url(#shadow)">
    <rect x="38" y="28" width="112" height="144" rx="24" fill="url(#bg)"/>
    <rect x="62" y="18" width="64" height="28" rx="14" fill="#0F172A"/>
    <rect x="78" y="30" width="10" height="10" rx="5" fill="white" fill-opacity="0.95"/>
    <rect x="102" y="30" width="10" height="10" rx="5" fill="white" fill-opacity="0.95"/>

    <path d="M69 76L80 87L102 65" stroke="white" stroke-width="10" stroke-linecap="round" stroke-linejoin="round"/>
    <rect x="69" y="106" width="52" height="10" rx="5" fill="white" fill-opacity="0.92"/>
    <rect x="69" y="126" width="38" height="10" rx="5" fill="white" fill-opacity="0.7"/>

    <path d="M124 145C154 145 180 121 180 91C180 82 178 74 174 66" stroke="url(#flow)" stroke-width="14" stroke-linecap="round"/>
    <path d="M170 70L174 56L160 60" stroke="url(#flow)" stroke-width="10" stroke-linecap="round" stroke-linejoin="round"/>

    <circle cx="152" cy="146" r="28" fill="#0F172A"/>
    <rect x="140" y="132" width="8" height="28" rx="4" fill="white"/>
    <rect x="152" y="124" width="8" height="36" rx="4" fill="white"/>
    <rect x="164" y="138" width="8" height="22" rx="4" fill="white"/>
  </g>
</svg>
